<svg width="16" height="16" viewBox="0 0 16 16" fill="none" xmlns="http://www.w3.org/2000/svg">
<rect width="16" height="16" fill="#D9D9D9"/>
<path d="M7.725 14C7.64167 14 7.6 13.9583 7.6 13.875V8.45C7.6 8.37333 7.62833 8.30667 7.685 8.25L8.515 7.415C8.57167 7.36167 8.63833 7.335 8.715 7.335H9.86C9.93667 7.335 10.0033 7.36167 10.06 7.415L10.9 8.26H11.135L11.975 7.415C12.0317 7.36167 12.0983 7.335 12.175 7.335H13.315C13.395 7.335 13.4617 7.36167 13.515 7.415L14.35 8.25C14.4067 8.30667 14.435 8.37333 14.435 8.45V13.875C14.435 13.9583 14.3933 14 14.31 14H12.89C12.8067 14 12.765 13.9583 12.765 13.875V8.665H11.85V13.875C11.85 13.9583 11.8083 14 11.725 14H10.31C10.2267 14 10.185 13.9583 10.185 13.875V8.665H9.265V13.875C9.265 13.9583 9.22333 14 9.14 14H7.725Z" fill="black"/>
<path d="M2.725 10C2.64167 10 2.6 9.95833 2.6 9.875V3.46C2.6 3.37667 2.64167 3.335 2.725 3.335H4.14C4.22333 3.335 4.265 3.37667 4.265 3.46V8.665H5.525C5.60833 8.665 5.65 8.70667 5.65 8.79V9.875C5.65 9.95833 5.60833 10 5.525 10H2.725Z" fill="black"/>
</svg>
